<svg width="36" height="36" fill="none" xmlns="http://www.w3.org/2000/svg">
		<path d="M6.55 13.0581L9.225 21.4481C9.425 22.0456 9.95 22.444 10.575 22.444H20.9C21.5 22.444 22.075 22.0705 22.275 21.5228L26.225 10.9917H28.5C29.05 10.9917 29.5 10.5436 29.5 9.99585C29.5 9.44813 29.05 9 28.5 9H25.525C25.1 9 24.725 9.27386 24.575 9.6722L20.5 20.4523H11L8.875 13.7303H20.65C21.2 13.7303 21.65 13.2822 21.65 12.7344C21.65 12.1867 21.2 11.7386 20.65 11.7386H7.5C7.175 11.7386 6.875 11.9129 6.7 12.1618C6.5 12.4108 6.45 12.7593 6.55 13.0581ZM20.4 23.7635C20.825 23.7635 21.25 23.9378 21.55 24.2365C21.85 24.5353 22.025 24.9585 22.025 25.3817C22.025 25.805 21.85 26.2282 21.55 26.527C21.25 26.8257 20.825 27 20.4 27C19.975 27 19.55 26.8257 19.25 26.527C18.95 26.2282 18.775 25.805 18.775 25.3817C18.775 24.9585 18.95 24.5353 19.25 24.2365C19.55 23.9378 19.975 23.7635 20.4 23.7635ZM11.425 23.7635C11.85 23.7635 12.275 23.9378 12.575 24.2365C12.875 24.5353 13.05 24.9585 13.05 25.3817C13.05 25.805 12.875 26.2282 12.575 26.527C12.275 26.8257 11.85 27 11.425 27C11 27 10.575 26.8257 10.275 26.527C9.975 26.2282 9.8 25.805 9.8 25.3817C9.8 24.9585 9.975 24.5353 10.275 24.2365C10.575 23.9378 11 23.7635 11.425 23.7635Z" fill="currentColor"></path>
		</svg>